HIERARCHY
ROOT Hips
{
	OFFSET 0.00000 0.00000 0.00000
	CHANNELS 6 Xposition Yposition Zposition Zrotation Yrotation Xrotation 
	JOINT LHipJoint
	{
		OFFSET 0 0 0
		CHANNELS 3 Zrotation Yrotation Xrotation
		JOINT LeftUpLeg
		{
			OFFSET 1.44361 -1.63093 0.70831
			CHANNELS 3 Zrotation Yrotation Xrotation
			JOINT LeftLeg
			{
				OFFSET 2.20103 -6.04728 0.00000
				CHANNELS 3 Zrotation Yrotation Xrotation
				JOINT LeftFoot
				{
					OFFSET 2.54154 -6.98283 0.00000
					CHANNELS 3 Zrotation Yrotation Xrotation
					JOINT LeftToeBase
					{
						OFFSET 0.05971 -0.16406 1.77582
						CHANNELS 3 Zrotation Yrotation Xrotation
						End Site
						{
							OFFSET 0.00000 -0.00000 0.90832
						}
					}
				}
			}
		}
	}
	JOINT RHipJoint
	{
		OFFSET 0 0 0
		CHANNELS 3 Zrotation Yrotation Xrotation
		JOINT RightUpLeg
		{
			OFFSET -1.65838 -1.63093 0.70830
			CHANNELS 3 Zrotation Yrotation Xrotation
			JOINT RightLeg
			{
				OFFSET -2.26926 -6.23475 0.00000
				CHANNELS 3 Zrotation Yrotation Xrotation
				JOINT RightFoot
				{
					OFFSET -2.34808 -6.45129 0.00000
					CHANNELS 3 Zrotation Yrotation Xrotation
					JOINT RightToeBase
					{
						OFFSET -0.18633 -0.51195 1.68539
						CHANNELS 3 Zrotation Yrotation Xrotation
						End Site
						{
							OFFSET -0.00000 -0.00000 0.88927
						}
					}
				}
			}
		}
	}
	JOINT LowerBack
	{
		OFFSET 0 0 0
		CHANNELS 3 Zrotation Yrotation Xrotation
		JOINT Spine
		{
			OFFSET -0.10393 2.01691 0.06920
			CHANNELS 3 Zrotation Yrotation Xrotation
			JOINT Spine1
			{
				OFFSET 0.04092 2.01302 -0.05283
				CHANNELS 3 Zrotation Yrotation Xrotation
				JOINT Neck
				{
					OFFSET 0 0 0
					CHANNELS 3 Zrotation Yrotation Xrotation
					JOINT Neck1
					{
						OFFSET -0.02870 1.58978 -0.03113
						CHANNELS 3 Zrotation Yrotation Xrotation
						JOINT Head
						{
							OFFSET 0.11532 1.54326 -0.29195
							CHANNELS 3 Zrotation Yrotation Xrotation
							End Site
							{
								OFFSET 0.04056 1.59999 -0.09535
							}
						}
					}
				}
				JOINT LeftShoulder
				{
					OFFSET 0 0 0
					CHANNELS 3 Zrotation Yrotation Xrotation
					JOINT LeftArm
					{
						OFFSET 3.30641 1.15764 0.01104
						CHANNELS 3 Zrotation Yrotation Xrotation
						JOINT LeftForeArm
						{
							OFFSET 4.63208 -0.00000 0.00000
							CHANNELS 3 Zrotation Yrotation Xrotation
							JOINT LeftHand
							{
								OFFSET 3.41924 -0.00000 -0.00000
								CHANNELS 3 Zrotation Yrotation Xrotation
								JOINT LeftFingerBase
								{
									OFFSET 0 0 0
									CHANNELS 3 Zrotation Yrotation Xrotation
									JOINT LeftHandIndex1
									{
										OFFSET 0.62537 -0.00000 -0.00000
										CHANNELS 3 Zrotation Yrotation Xrotation
										End Site
										{
											OFFSET 0.50419 -0.00000 -0.00000
										}
									}
								}
								JOINT LThumb
								{
									OFFSET 0 0 0
									CHANNELS 3 Zrotation Yrotation Xrotation
									End Site
									{
										OFFSET 0.51189 -0.00000 0.51189
									}
								}
							}
						}
					}
				}
				JOINT RightShoulder
				{
					OFFSET 0 0 0
					CHANNELS 3 Zrotation Yrotation Xrotation
					JOINT RightArm
					{
						OFFSET -3.78081 1.02180 -0.16609
						CHANNELS 3 Zrotation Yrotation Xrotation
						JOINT RightForeArm
						{
							OFFSET -4.40640 -0.00000 -0.00000
							CHANNELS 3 Zrotation Yrotation Xrotation
							JOINT RightHand
							{
								OFFSET -3.44675 -0.00000 0.00000
								CHANNELS 3 Zrotation Yrotation Xrotation
								JOINT RightFingerBase
								{
									OFFSET 0 0 0
									CHANNELS 3 Zrotation Yrotation Xrotation
									JOINT RightHandIndex1
									{
										OFFSET -0.51367 -0.00000 -0.00000
										CHANNELS 3 Zrotation Yrotation Xrotation
										End Site
										{
											OFFSET -0.41414 -0.00000 -0.00000
										}
									}
								}
								JOINT RThumb
								{
									OFFSET 0 0 0
									CHANNELS 3 Zrotation Yrotation Xrotation
									End Site
									{
										OFFSET -0.42046 -0.00000 0.42046
									}
								}
							}
						}
					}
				}
			}
		}
	}
}
MOTION
Frames: 13
Frame Time: .0083333
9.8127 17.1473 -0.1659 -0.8217 -0.3505 12.3870 0.0000 0.0000 0.0000 -18.6889 -15.5721 -16.4064 1.5046 7.7475 21.9497 1.2459 1.1686 -21.5457 11.2716 -18.0655 -63.6605 0.0000 0.0000 0.0000 7.7508 14.9292 -22.7172 -2.4458 -9.7386 28.1344 -0.9654 -1.3886 -19.1132 -2.4887 9.8173 -28.3870 -9.3711 1.2954 -1.5739 0.4158 2.0918 3.8868 5.8042 0.6817 4.6186 -1.6579 -1.4445 -5.6468 6.5858 -3.4202 26.6991 2.2390 -1.0768 9.4518 0.0000 -0.0000 0.0000 -79.5478 -18.1747 34.6457 10.4967 -17.5128 -1.6212 -0.0000 -0.0000 20.4715 27.4202 -17.4593 -8.8473 -7.1250 0.0000 -0.0000 -0.3514 10.4695 0.2817 0.0000 -0.0000 0.0000 75.2135 -5.5497 19.3374 -15.2405 24.4801 -3.3250 0.0000 0.0000 11.7971 -10.1734 -39.7528 6.5463 7.1250 -0.0000 -0.0000 34.4367 -67.1443 -19.2744
9.7912 17.1432 -0.0347 -0.8215 0.3502 12.1173 0.0000 0.0000 0.0000 -18.8154 -15.5341 -15.4429 1.4725 7.6681 21.7105 1.2771 0.8905 -21.6996 11.3116 -18.0842 -63.7893 0.0000 0.0000 0.0000 7.1003 15.1894 -23.3746 -2.3816 -9.6193 27.7524 -0.8967 -2.1887 -18.8055 -2.2182 9.3065 -26.7587 -9.4969 1.0825 -1.2881 0.6291 1.7804 4.0098 6.0819 0.5130 4.6317 -1.6108 -1.5051 -5.6038 6.5679 -3.5241 26.9483 2.2189 -1.1185 9.5373 0.0000 0.0000 0.0000 -79.9598 -19.2575 35.4593 10.3819 -17.3347 -1.5868 -0.0000 -0.0000 20.8129 26.9781 -17.2308 -8.5750 -7.1250 0.0000 -0.0000 -0.6177 10.7921 0.4912 0.0000 0.0000 0.0000 75.3298 -6.6892 19.3523 -15.0202 24.1743 -3.2342 0.0000 0.0000 12.2062 -11.0564 -39.1984 7.0401 7.1250 -0.0000 -0.0000 32.6739 -66.9642 -18.0677
9.7624 17.1389 0.1004 -0.7634 1.0506 11.8589 0.0000 0.0000 0.0000 -18.9663 -15.4946 -14.5026 1.4464 7.6026 21.5135 1.3227 0.5409 -21.9485 11.3376 -18.0964 -63.8731 0.0000 0.0000 0.0000 6.4025 15.5026 -23.9037 -2.3007 -9.4662 27.2647 -0.8198 -3.1166 -18.5054 -2.0405 8.9499 -25.6388 -9.6787 0.8941 -1.0599 0.7761 1.5119 4.1302 6.3259 0.3632 4.6724 -1.3682 -1.5852 -5.4534 6.5179 -3.6698 27.0946 2.1484 -1.1671 9.5644 -0.0000 0.0000 0.0000 -80.3306 -20.2167 36.4559 10.3065 -17.2176 -1.5644 -0.0000 -0.0000 21.1814 26.7292 -17.1889 -8.4647 -7.1250 0.0000 -0.0000 -0.7771 10.8777 0.6165 -0.0000 0.0000 0.0000 75.7831 -7.8722 18.9423 -14.8556 23.9445 -3.1671 0.0000 0.0000 12.4880 -11.5889 -38.6691 7.3016 7.1250 -0.0000 -0.0000 31.3436 -66.6900 -17.0778
9.7313 17.1311 0.2373 -0.5326 1.8026 11.7077 0.0000 0.0000 0.0000 -19.2711 -15.4894 -13.7332 1.4363 7.5772 21.4371 1.3793 0.0004 -22.2207 11.3612 -18.1073 -63.9490 0.0000 0.0000 0.0000 5.5146 15.4927 -24.5517 -2.2156 -9.3015 26.7430 -0.7313 -4.0752 -18.1387 -2.0326 8.9336 -25.5878 -9.9737 0.6623 -0.9785 0.8579 1.2083 4.2581 6.5677 0.1867 4.8160 -0.9893 -1.6098 -5.3458 6.3720 -3.7275 27.1515 2.0273 -1.1720 9.5592 0.0000 0.0000 0.0000 -80.8220 -21.1294 37.3366 10.2876 -17.1882 -1.5589 -0.0000 -0.0000 21.7667 26.3764 -16.7506 -8.1336 -7.1250 0.0000 -0.0000 -0.9671 11.4119 0.7568 0.0000 0.0000 0.0000 76.4164 -8.9211 18.2983 -14.7264 23.7636 -3.1149 0.0000 0.0000 12.6395 -12.8474 -38.1312 8.0158 7.1250 -0.0000 -0.0000 29.2364 -66.6125 -15.7928
9.6990 17.1202 0.3767 -0.1281 2.5344 11.6752 0.0000 0.0000 0.0000 -19.7541 -15.5973 -13.1078 1.4429 7.5938 21.4870 1.4374 -0.5797 -22.4995 11.3866 -18.1191 -64.0307 0.0000 0.0000 0.0000 4.4488 15.1724 -25.3732 -2.1324 -9.1365 26.2234 -0.6460 -4.8959 -17.7491 -2.0433 8.9556 -25.6565 -10.3965 0.3890 -1.0031 0.9035 0.8658 4.3563 6.8430 -0.0154 5.0021 -0.8024 -1.6425 -5.1636 6.2988 -3.7763 27.0762 1.9646 -1.1887 9.4956 -0.0000 -0.0000 0.0000 -81.5211 -21.9451 38.1818 10.3287 -17.2521 -1.5710 -0.0000 -0.0000 22.2505 25.9781 -16.1010 -7.6959 -7.1250 0.0000 -0.0000 -1.1716 12.1809 0.8982 -0.0000 -0.0000 0.0000 77.1109 -9.9979 17.6882 -14.6020 23.5887 -3.0649 0.0000 0.0000 13.0745 -14.1046 -37.6605 8.7279 7.1250 -0.0000 -0.0000 27.2271 -66.5806 -14.6170
9.6638 17.1064 0.5194 0.2240 3.1646 11.6848 0.0000 0.0000 0.0000 -20.1509 -15.6829 -12.5414 1.4541 7.6219 21.5716 1.4781 -0.6542 -22.7970 11.5882 -18.2111 -64.6776 0.0000 0.0000 0.0000 3.5012 14.7739 -26.2491 -2.0496 -8.9687 25.6975 -0.5526 -5.5887 -17.1921 -2.0516 8.9726 -25.7098 -10.7079 0.1599 -0.9796 0.9166 0.5724 4.4183 7.0202 -0.1832 5.1169 -0.1580 -1.6004 -5.1352 5.7026 -3.6667 27.1822 1.6570 -1.1326 9.5029 -0.0000 -0.0000 0.0000 -82.2150 -22.6378 39.4457 10.4392 -17.4236 -1.6040 -0.0000 -0.0000 21.7276 25.7405 -15.8448 -7.4993 -7.1250 0.0000 -0.0000 -1.3078 12.4945 0.9941 -0.0000 -0.0000 0.0000 78.0158 -11.1204 16.8464 -14.4717 23.4050 -3.0129 0.0000 0.0000 13.8622 -14.4607 -37.5029 8.9227 7.1250 -0.0000 -0.0000 26.6267 -66.5490 -14.2560
9.6231 17.0894 0.6663 0.3876 3.6895 11.6699 0.0000 0.0000 0.0000 -20.2783 -15.6428 -12.0247 1.4742 7.6722 21.7227 1.5165 -0.4324 -23.1647 11.8795 -18.3392 -65.6062 0.0000 0.0000 0.0000 2.8658 14.4529 -27.0361 -1.9584 -8.7789 25.1062 -0.4399 -6.2672 -16.3819 -2.0327 8.9338 -25.5885 -10.8446 -0.0058 -0.9148 0.9777 0.3498 4.4792 7.1522 -0.3078 5.1929 0.2264 -1.5774 -5.3067 5.4463 -3.6428 27.3882 1.5046 -1.1017 9.5989 0.0000 0.0000 0.0000 -82.9740 -23.2885 40.9673 10.5813 -17.6436 -1.6468 -0.0000 -0.0000 20.7403 25.5549 -16.0270 -7.5203 -7.1250 0.0000 -0.0000 -1.4472 12.3223 1.1053 0.0000 0.0000 0.0000 79.0582 -12.0704 15.6076 -14.2885 23.1456 -2.9405 0.0000 0.0000 14.4433 -14.3715 -37.6861 8.9025 7.1250 -0.0000 -0.0000 26.9637 -66.6811 -14.5281
9.5756 17.0715 0.8178 0.4280 4.1812 11.5742 0.0000 0.0000 0.0000 -20.2318 -15.5708 -11.4448 1.5037 7.7452 21.9427 1.5819 -0.4869 -23.6476 12.0450 -18.4096 -66.1313 0.0000 0.0000 0.0000 2.5044 14.1739 -27.6015 -1.8499 -8.5462 24.3857 -0.3201 -6.9621 -15.4516 -1.9678 8.7986 -25.1673 -10.8934 -0.1538 -0.8648 1.1052 0.1458 4.5352 7.3068 -0.4212 5.2686 -0.7980 -1.7437 -5.5091 6.7647 -4.0836 27.6100 2.1036 -1.2639 9.7799 0.0000 -0.0000 0.0000 -83.7995 -23.6434 42.6951 10.8335 -18.0326 -1.7240 -0.0000 -0.0000 20.1947 25.8645 -16.6205 -7.8949 -7.1250 0.0000 -0.0000 -1.2937 11.6309 1.0066 0.0000 -0.0000 0.0000 79.9953 -12.8665 14.4722 -13.8949 22.5842 -2.7876 0.0000 0.0000 14.6882 -14.5742 -37.3866 8.9712 7.1250 -0.0000 -0.0000 26.3512 -66.4814 -14.0592
9.5245 17.0507 0.9741 0.4576 4.6242 11.3589 0.0000 0.0000 0.0000 -20.2062 -15.4921 -10.6660 1.5288 7.8066 22.1282 1.6743 -1.0451 -24.1702 12.0173 -18.3979 -66.0435 0.0000 0.0000 0.0000 2.2774 13.8261 -27.9809 -1.7368 -8.2949 23.6133 -0.2205 -7.4514 -14.5354 -1.8056 8.4487 -24.0856 -10.8991 -0.3089 -0.7292 1.2218 -0.0793 4.5880 7.4235 -0.5401 5.2965 -1.3261 -1.7971 -5.4028 7.4499 -4.2616 27.6743 2.4222 -1.3301 9.8161 -0.0000 0.0000 0.0000 -84.6451 -23.6838 44.3545 11.2165 -18.6193 -1.8444 -0.0000 -0.0000 20.0029 26.2342 -17.0334 -8.2143 -7.1250 0.0000 -0.0000 -1.0878 11.1248 0.8576 -0.0000 0.0000 0.0000 80.9189 -13.5064 13.2867 -13.3117 21.7423 -2.5676 0.0000 0.0000 15.3099 -14.6858 -36.9182 8.9464 7.1250 -0.0000 -0.0000 25.6401 -66.1055 -13.4389
9.4735 17.0263 1.1376 0.6008 4.9092 11.1401 0.0000 0.0000 0.0000 -20.3647 -15.4320 -9.8034 1.5497 7.8574 22.2819 1.7641 -1.4943 -24.6993 11.9846 -18.3841 -65.9400 0.0000 0.0000 0.0000 2.0149 13.3962 -28.3359 -1.6266 -8.0407 22.8376 -0.1486 -7.6834 -13.6850 -1.7552 8.3363 -23.7404 -10.9428 -0.4395 -0.5690 1.2483 -0.2696 4.6386 7.4668 -0.6397 5.3013 -0.9149 -1.7099 -5.4068 7.1228 -4.1292 27.8315 2.2506 -1.2576 9.8534 0.0000 0.0000 0.0000 -85.5775 -23.7575 45.8418 11.5204 -19.0814 -1.9426 -0.0000 -0.0000 19.6617 26.4790 -17.1215 -8.3428 -7.1250 0.0000 -0.0000 -0.9351 10.9906 0.7397 0.0000 0.0000 0.0000 82.1229 -14.1849 11.4555 -13.0018 21.2898 -2.4539 0.0000 0.0000 16.4352 -13.8827 -37.1002 8.4795 7.1250 -0.0000 -0.0000 26.7572 -66.0326 -14.0161
9.4189 16.9992 1.3095 0.8417 5.1114 11.0428 0.0000 0.0000 0.0000 -20.6052 -15.3942 -9.0357 1.5713 7.9093 22.4390 1.8426 -1.5735 -25.2360 12.0482 -18.4109 -66.1415 0.0000 0.0000 0.0000 1.7463 12.8354 -28.7970 -1.5250 -7.7973 22.1001 -0.0942 -7.7773 -12.8890 -1.9070 8.6696 -24.7672 -11.0856 -0.5701 -0.5387 1.2488 -0.4421 4.6481 7.5397 -0.7340 5.3356 -0.9844 -1.7262 -5.6431 7.4199 -4.2491 28.1216 2.3604 -1.2777 10.0204 -0.0000 0.0000 0.0000 -86.5494 -23.7805 47.5198 11.8044 -19.5107 -2.0365 -0.0000 -0.0000 18.9617 26.5355 -16.9502 -8.2831 -7.1250 0.0000 -0.0000 -0.8812 11.1691 0.6939 -0.0000 0.0000 0.0000 83.5133 -15.3425 9.5590 -13.3715 21.8291 -2.5898 0.0000 0.0000 17.1740 -12.9378 -37.6509 7.9880 7.1250 -0.0000 -0.0000 28.4992 -66.2324 -15.1214
9.3574 16.9705 1.4906 1.0913 5.2964 11.0045 0.0000 0.0000 0.0000 -20.7970 -15.2726 -8.3094 1.5926 7.9603 22.5935 1.9087 -1.5202 -25.7106 12.1602 -18.4575 -66.4956 0.0000 0.0000 0.0000 1.5836 12.2799 -29.2269 -1.4270 -7.5537 21.3666 -0.0503 -7.8368 -12.1726 -1.9293 8.7173 -24.9149 -11.2777 -0.7342 -0.6239 1.2953 -0.6464 4.6438 7.6880 -0.8508 5.4322 -1.1397 -1.7244 -5.8478 7.6235 -4.3040 28.3966 2.4592 -1.2873 10.1724 -0.0000 -0.0000 0.0000 -87.5867 -23.6621 49.0340 12.1401 -20.0144 -2.1500 -0.0000 -0.0000 18.4562 26.2173 -16.8284 -8.1136 -7.1250 0.0000 -0.0000 -1.0795 11.3512 0.8461 -0.0000 -0.0000 0.0000 84.5217 -15.9108 8.0806 -13.0597 21.3746 -2.4750 0.0000 0.0000 17.4610 -12.9139 -37.6362 7.9703 7.1250 -0.0000 -0.0000 28.5060 -66.2128 -15.1126
9.2903 16.9418 1.6793 1.3374 5.4333 10.9451 0.0000 0.0000 0.0000 -20.9484 -15.0362 -7.5578 1.6119 8.0060 22.7324 1.9756 -1.8376 -26.0863 12.1639 -18.4591 -66.5073 0.0000 0.0000 0.0000 1.5407 11.9053 -29.4491 -1.3235 -7.2858 20.5649 -0.0044 -8.0158 -11.5190 -1.9650 8.7928 -25.1494 -11.3779 -0.9238 -0.7598 1.3016 -0.8773 4.6830 7.7371 -0.9822 5.6083 -0.7700 -1.5729 -5.9834 7.2000 -4.0509 28.5317 2.2707 -1.1721 10.2197 0.0000 0.0000 0.0000 -88.5706 -23.5093 50.2299 12.4579 -20.4878 -2.2600 -0.0000 -0.0000 18.1667 25.7829 -16.7580 -7.9290 -7.1250 0.0000 -0.0000 -1.3602 11.4934 1.0622 0.0000 0.0000 0.0000 85.5881 -16.3016 6.3673 -12.7297 20.8898 -2.3560 0.0000 0.0000 18.1013 -12.8112 -37.6290 7.9043 7.1250 -0.0000 -0.0000 28.6087 -66.1770 -15.1477
